# xmcd
#
# Track frame offsets: 
#        150
#        20896
#        43678
#        67259
#        87002
#        101757
#        123518
#        145357
#        163657
#        185793
#        206704
#
# Disc length: 3013 seconds
#
# Revision: 0
# Processed by: cddbd v1.5.2PL0 Copyright (c) Steve Scherf et al.
# Submitted via: ExactAudioCopy v0.95a5
#
DISCID=ab0bc30b
DTITLE=Kenny Neal - Let Life Flow
DYEAR=2008
DGENRE=Blues
TTITLE0=Let Life Flow
TTITLE1=Blues, Leave Me Alone
TTITLE2=You've Got To Hurt Before You Heal
TTITLE3=Louisiana Stew
TTITLE4=Starlight Diamond
TTITLE5=Another Man's Cologne
TTITLE6=Broken Dreams
TTITLE7=Bleeding Heart
TTITLE8=Since I Met You Baby
TTITLE9=Fly Away
TTITLE10=It Don't Make Sense You Can't Make Peace
EXTD=
EXTT0=
EXTT1=
EXTT2=
EXTT3=
EXTT4=
EXTT5=
EXTT6=
EXTT7=
EXTT8=
EXTT9=
EXTT10=
PLAYORDER=
